<svg width="58" height="58" viewBox="0 0 58 58" fill="none" xmlns="http://www.w3.org/2000/svg">
<path d="M24.3601 58V5.80005H30.1601V58H24.3601Z" fill="white"/>
<path d="M0 46.4V0H5.8V46.4H0Z" fill="white"/>
<path d="M48.72 5.80005L5.80005 5.80005L5.80005 4.91142e-05L48.72 4.91142e-05V5.80005Z" fill="white"/>
<path d="M48.72 25.5199L5.80005 25.5199L5.80005 19.7199L48.72 19.7199V25.5199Z" fill="white"/>
<path d="M52.2 46.4V29H58V46.4H52.2Z" fill="white"/>
<path d="M52.2 16.24V9.28003H58V16.24H52.2Z" fill="white"/>
<path d="M52.2 29C52.2 27.26 50.46 25.52 48.72 25.52V19.72C53.36 19.72 58 23.78 58 29H52.2Z" fill="white"/>
<path d="M52.2 9.28C52.2 7.54 50.46 5.8 48.72 5.8V0C53.36 0 58 4.06 58 9.28H52.2Z" fill="white"/>
<path d="M48.72 19.7199C50.46 19.7199 52.2 17.9799 52.2 16.2399H58C58 20.8799 53.94 25.5199 48.72 25.5199V19.7199Z" fill="white"/>
</svg>
